<svg width="47" height="47" viewBox="0 0 47 47" fill="none" xmlns="http://www.w3.org/2000/svg">
<circle cx="23.4019" cy="23.4019" r="23.4019" fill="#EC6408"/>
<path d="M17.756 30.5073V28.6635L21.9255 25.1017C22.2747 24.8083 22.6588 24.4801 23.0778 24.1169C23.5108 23.7538 23.9229 23.3626 24.314 22.9436C24.7191 22.5246 25.0473 22.0776 25.2987 21.6027C25.5641 21.1278 25.6968 20.6319 25.6968 20.1151C25.6968 19.3189 25.4524 18.6973 24.9635 18.2503C24.4886 17.8034 23.8391 17.5799 23.015 17.5799C22.3166 17.5799 21.7229 17.7265 21.234 18.0199C20.7591 18.3132 20.4448 18.7252 20.2912 19.256H18.0284C18.1541 18.404 18.4683 17.7056 18.9712 17.1608C19.4741 16.6161 20.0886 16.211 20.815 15.9456C21.5413 15.6662 22.3026 15.5266 23.0988 15.5266C24.0207 15.5266 24.8448 15.6942 25.5711 16.0294C26.2975 16.3646 26.8702 16.8605 27.2892 17.517C27.7082 18.1595 27.9178 18.9487 27.9178 19.8846C27.9178 20.7646 27.7501 21.5468 27.4149 22.2312C27.0797 22.9157 26.6327 23.5373 26.074 24.096C25.5292 24.6547 24.9356 25.1995 24.293 25.7302L21.0036 28.475H28.0225V30.5073H17.756Z" fill="black"/>
</svg>
