<svg width="47" height="47" viewBox="0 0 47 47" fill="none" xmlns="http://www.w3.org/2000/svg">
<circle cx="23.4019" cy="23.4019" r="23.4019" fill="#EC6408"/>
<path d="M23.4619 30.6749C22.8334 30.6749 22.2118 30.6051 21.5972 30.4654C20.9826 30.3257 20.4099 30.1092 19.8791 29.8159C19.3623 29.5226 18.9223 29.1315 18.5591 28.6426C18.2099 28.1537 17.9864 27.5601 17.8887 26.8617H20.1305C20.2842 27.3086 20.5356 27.6648 20.8848 27.9302C21.248 28.1816 21.6531 28.3632 22.1 28.475C22.561 28.5867 23.0219 28.6426 23.4829 28.6426C23.7902 28.6426 24.1184 28.6146 24.4676 28.5588C24.8308 28.5029 25.166 28.3912 25.4733 28.2235C25.7946 28.0559 26.053 27.8115 26.2486 27.4902C26.4441 27.169 26.5419 26.7569 26.5419 26.254C26.5419 25.7652 26.4511 25.3741 26.2695 25.0807C26.0879 24.7734 25.8435 24.536 25.5362 24.3684C25.2429 24.2007 24.9076 24.089 24.5305 24.0331C24.1533 23.9772 23.7622 23.9493 23.3572 23.9493H21.8486V22.0217H22.7915C23.2384 22.0217 23.6575 21.9798 24.0486 21.896C24.4397 21.7982 24.7749 21.6655 25.0543 21.4979C25.3476 21.3163 25.5781 21.0859 25.7457 20.8065C25.9133 20.5132 25.9971 20.157 25.9971 19.7379C25.9971 19.1513 25.8714 18.7043 25.62 18.397C25.3686 18.0757 25.0403 17.8522 24.6352 17.7265C24.2302 17.6008 23.7902 17.538 23.3153 17.538C22.9242 17.538 22.533 17.6008 22.1419 17.7265C21.7648 17.8383 21.4296 18.0199 21.1362 18.2713C20.8429 18.5227 20.6474 18.844 20.5496 19.2351H18.3706C18.4544 18.5786 18.6499 18.0199 18.9572 17.5589C19.2785 17.084 19.6696 16.6929 20.1305 16.3856C20.6055 16.0783 21.1293 15.8618 21.7019 15.7361C22.2746 15.5964 22.8683 15.5266 23.4829 15.5266C24.1114 15.5266 24.7051 15.5964 25.2638 15.7361C25.8365 15.8618 26.3394 16.0783 26.7724 16.3856C27.2054 16.6929 27.5476 17.098 27.799 17.6008C28.0644 18.0897 28.1971 18.6903 28.1971 19.4027C28.1971 19.8916 28.1133 20.3455 27.9457 20.7646C27.792 21.1836 27.5546 21.5538 27.2333 21.875C26.926 22.1823 26.5489 22.4408 26.1019 22.6503C26.7025 22.776 27.2054 23.0065 27.6104 23.3417C28.0155 23.6769 28.3158 24.089 28.5114 24.5779C28.7209 25.0528 28.8257 25.5836 28.8257 26.1702C28.8257 27.0921 28.6581 27.8464 28.3228 28.4331C27.9876 29.0197 27.5476 29.4737 27.0028 29.795C26.472 30.1162 25.8924 30.3467 25.2638 30.4864C24.6352 30.6121 24.0346 30.6749 23.4619 30.6749Z" fill="black"/>
</svg>
