<svg width="77" height="77" viewBox="0 0 77 77" fill="none" xmlns="http://www.w3.org/2000/svg">
<path d="M65.7715 53.7396H58.5527V46.5209C58.5527 45.2055 57.4619 44.1146 56.1465 44.1146C54.8311 44.1146 53.7402 45.2055 53.7402 46.5209V53.7396H46.5215C45.2061 53.7396 44.1152 54.8305 44.1152 56.1459C44.1152 57.4613 45.2061 58.5521 46.5215 58.5521H53.7402V65.7709C53.7402 67.0863 54.8311 68.1771 56.1465 68.1771C57.4619 68.1771 58.5527 67.0863 58.5527 65.7709V58.5521H65.7715C67.0869 58.5521 68.1777 57.4613 68.1777 56.1459C68.1777 54.8305 67.0869 53.7396 65.7715 53.7396Z" fill="#F8720A"/>
<path opacity="0.4" d="M70.5833 27.335V12.7691C70.5833 8.24538 68.53 6.41663 63.4288 6.41663H50.4671C45.3658 6.41663 43.3125 8.24538 43.3125 12.7691V27.3029C43.3125 31.8587 45.3658 33.6554 50.4671 33.6554H63.4288C68.53 33.6875 70.5833 31.8587 70.5833 27.335Z" fill="#F8720A"/>
<path d="M33.6868 27.335V12.7691C33.6868 8.24538 31.6335 6.41663 26.5323 6.41663H13.5706C8.46935 6.41663 6.41602 8.24538 6.41602 12.7691V27.3029C6.41602 31.8587 8.46935 33.6554 13.5706 33.6554H26.5323C31.6335 33.6875 33.6868 31.8587 33.6868 27.335Z" fill="#F8720A"/>
<path opacity="0.4" d="M33.6868 63.4288V50.4671C33.6868 45.3658 31.6335 43.3125 26.5323 43.3125H13.5706C8.46935 43.3125 6.41602 45.3658 6.41602 50.4671V63.4288C6.41602 68.53 8.46935 70.5833 13.5706 70.5833H26.5323C31.6335 70.5833 33.6868 68.53 33.6868 63.4288Z" fill="#F8720A"/>
</svg>
