<svg width="48" height="48" viewBox="0 0 48 48" fill="none" xmlns="http://www.w3.org/2000/svg">
<path d="M17.1406 30.54L30.2206 17.46" stroke="#F8720A" stroke-width="1.5" stroke-linecap="round" stroke-linejoin="round"/>
<path d="M17.96 20.74C19.3186 20.74 20.42 19.6386 20.42 18.28C20.42 16.9214 19.3186 15.82 17.96 15.82C16.6014 15.82 15.5 16.9214 15.5 18.28C15.5 19.6386 16.6014 20.74 17.96 20.74Z" stroke="#F8720A" stroke-width="1.5" stroke-linecap="round" stroke-linejoin="round"/>
<path d="M31.04 32.18C32.3987 32.18 33.5001 31.0786 33.5001 29.72C33.5001 28.3614 32.3987 27.26 31.04 27.26C29.6814 27.26 28.5801 28.3614 28.5801 29.72C28.5801 31.0786 29.6814 32.18 31.04 32.18Z" stroke="#F8720A" stroke-width="1.5" stroke-linecap="round" stroke-linejoin="round"/>
<path d="M24 44C35.0457 44 44 35.0457 44 24C44 12.9543 35.0457 4 24 4C12.9543 4 4 12.9543 4 24C4 35.0457 12.9543 44 24 44Z" stroke="#F8720A" stroke-width="1.5" stroke-linecap="round" stroke-linejoin="round"/>
</svg>
