<svg width="77" height="77" viewBox="0 0 77 77" fill="none" xmlns="http://www.w3.org/2000/svg">
<path d="M72.9889 70.5834C72.9889 71.8988 71.8981 72.9896 70.5827 72.9896H6.41602C5.1006 72.9896 4.00977 71.8988 4.00977 70.5834C4.00977 69.2359 5.1006 68.1771 6.41602 68.1771H70.5827C71.8981 68.1771 72.9889 69.2359 72.9889 70.5834Z" fill="white"/>
<path opacity="0.4" d="M67.3753 32.0192V68.1772H9.46484L9.62527 31.9871C9.62527 30.03 10.5236 28.1693 12.0957 26.9501L34.554 9.49681C36.864 7.66806 40.1365 7.66806 42.4465 9.49681L64.9049 26.9501C66.4769 28.1693 67.3753 30.03 67.3753 32.0192Z" fill="white"/>
<path d="M43.3125 26.4688H33.6875C32.3721 26.4688 31.2812 25.3779 31.2812 24.0625C31.2812 22.7471 32.3721 21.6562 33.6875 21.6562H43.3125C44.6279 21.6562 45.7188 22.7471 45.7188 24.0625C45.7188 25.3779 44.6279 26.4688 43.3125 26.4688Z" fill="white"/>
<path d="M49.7298 35.2916H27.2715C24.6086 35.2916 22.459 37.4412 22.459 40.1041V70.5833H54.5423V40.1041C54.5423 37.4412 52.3927 35.2916 49.7298 35.2916ZM34.4902 56.9479C34.4902 58.2633 33.3994 59.3541 32.084 59.3541C30.7686 59.3541 29.6777 58.2633 29.6777 56.9479V52.1354C29.6777 50.82 30.7686 49.7291 32.084 49.7291C33.3994 49.7291 34.4902 50.82 34.4902 52.1354V56.9479Z" fill="white"/>
</svg>
