<svg width="77" height="77" viewBox="0 0 77 77" fill="none" xmlns="http://www.w3.org/2000/svg">
<path d="M62.1454 15.6888L43.3446 7.31501C40.5854 6.09584 36.4146 6.09584 33.6554 7.31501L14.8546 15.6888C10.1062 17.8063 9.40039 20.6938 9.40039 22.2338C9.40039 23.7738 10.1062 26.6613 14.8546 28.7788L33.6554 37.1525C35.035 37.7621 36.7675 38.0829 38.5 38.0829C40.2325 38.0829 41.965 37.7621 43.3446 37.1525L62.1454 28.7788C66.8937 26.6613 67.5996 23.7738 67.5996 22.2338C67.5996 20.6938 66.9258 17.8063 62.1454 15.6888Z" fill="white"/>
<path opacity="0.4" d="M38.5 54.67C37.2809 54.67 36.0617 54.4133 34.9388 53.932L13.3146 44.307C10.01 42.8312 7.44336 38.885 7.44336 35.2595C7.44336 33.9441 8.50211 32.8854 9.81753 32.8854C11.1329 32.8854 12.1917 33.9441 12.1917 35.2595C12.1917 36.992 13.6354 39.2379 15.2396 39.9437L36.8638 49.5687C37.8904 50.0179 39.0775 50.0179 40.1042 49.5687L61.7284 39.9437C63.3325 39.2379 64.7763 37.0241 64.7763 35.2595C64.7763 33.9441 65.835 32.8854 67.1504 32.8854C68.4659 32.8854 69.5246 33.9441 69.5246 35.2595C69.5246 38.8529 66.9579 42.8312 63.6534 44.307L42.0292 53.932C40.9384 54.4133 39.7192 54.67 38.5 54.67Z" fill="white"/>
<path opacity="0.4" d="M38.5 70.5833C37.2809 70.5833 36.0617 70.3266 34.9388 69.8454L13.3146 60.2204C9.75336 58.6483 7.44336 55.087 7.44336 51.1729C7.44336 49.8575 8.50211 48.7987 9.81753 48.7987C11.1329 48.7987 12.1917 49.8575 12.1917 51.1729C12.1917 53.1941 13.3788 55.0229 15.2396 55.857L36.8638 65.482C37.8904 65.9312 39.0775 65.9312 40.1042 65.482L61.7284 55.857C63.5571 55.055 64.7763 53.1941 64.7763 51.1729C64.7763 49.8575 65.835 48.7987 67.1504 48.7987C68.4659 48.7987 69.5246 49.8575 69.5246 51.1729C69.5246 55.087 67.2146 58.6162 63.6534 60.2204L42.0292 69.8454C40.9384 70.3266 39.7192 70.5833 38.5 70.5833Z" fill="white"/>
</svg>
