<svg width="48" height="48" viewBox="0 0 48 48" fill="none" xmlns="http://www.w3.org/2000/svg">
<path d="M35.5028 14.0999C35.0228 14.0199 34.5228 14 34.0028 14H14.0028C13.4428 14 12.9028 14.04 12.3828 14.12C12.6628 13.56 13.0628 13.04 13.5428 12.56L20.0428 6.04C22.7828 3.32 27.2228 3.32 29.9628 6.04L33.4628 9.57992C34.7428 10.8399 35.4228 12.4399 35.5028 14.0999Z" stroke="#F8720A" stroke-width="1.5" stroke-linecap="round" stroke-linejoin="round"/>
<path d="M18 38C18 39.5 17.58 40.92 16.84 42.12C15.46 44.44 12.92 46 10 46C7.08 46 4.54 44.44 3.16 42.12C2.42 40.92 2 39.5 2 38C2 33.58 5.58 30 10 30C14.42 30 18 33.58 18 38Z" stroke="#F8720A" stroke-width="1.5" stroke-miterlimit="10" stroke-linecap="round" stroke-linejoin="round"/>
<path d="M12.9834 37.959H7.02344" stroke="#F8720A" stroke-width="1.5" stroke-miterlimit="10" stroke-linecap="round" stroke-linejoin="round"/>
<path d="M10 35.0391V41.019" stroke="#F8720A" stroke-width="1.5" stroke-miterlimit="10" stroke-linecap="round" stroke-linejoin="round"/>
<path d="M44 24V34C44 40 40 44 34 44H15.26C15.88 43.48 16.42 42.84 16.84 42.12C17.58 40.92 18 39.5 18 38C18 33.58 14.42 30 10 30C7.6 30 5.46 31.06 4 32.72V24C4 18.56 7.28 14.76 12.38 14.12C12.9 14.04 13.44 14 14 14H34C34.52 14 35.02 14.02 35.5 14.1C40.66 14.7 44 18.52 44 24Z" stroke="#F8720A" stroke-width="1.5" stroke-linecap="round" stroke-linejoin="round"/>
<path d="M44 25H38C35.8 25 34 26.8 34 29C34 31.2 35.8 33 38 33H44" stroke="#F8720A" stroke-width="1.5" stroke-linecap="round" stroke-linejoin="round"/>
</svg>
