<svg width="35" height="35" viewBox="0 0 35 35" fill="none" xmlns="http://www.w3.org/2000/svg">
<path d="M4.38965 16.3625V22.9104C4.38965 29.4583 7.01465 32.0833 13.5626 32.0833H21.423C27.9709 32.0833 30.5959 29.4583 30.5959 22.9104V16.3625" stroke="#EF7F1A" stroke-width="1.5" stroke-linecap="round" stroke-linejoin="round"/>
<path d="M17.5 17.5C20.1688 17.5 22.1375 15.3271 21.875 12.6583L20.9125 2.91666H14.1021L13.125 12.6583C12.8625 15.3271 14.8313 17.5 17.5 17.5Z" stroke="#EF7F1A" stroke-width="1.5" stroke-linecap="round" stroke-linejoin="round"/>
<path d="M26.7024 17.5C29.6482 17.5 31.8066 15.1083 31.5149 12.1771L31.1066 8.16666C30.5816 4.37499 29.1232 2.91666 25.3024 2.91666H20.8545L21.8753 13.1396C22.1232 15.5458 24.2962 17.5 26.7024 17.5Z" stroke="#EF7F1A" stroke-width="1.5" stroke-linecap="round" stroke-linejoin="round"/>
<path d="M8.22465 17.5C10.6309 17.5 12.8038 15.5458 13.0371 13.1396L13.358 9.91666L14.058 2.91666H9.61006C5.78923 2.91666 4.3309 4.37499 3.8059 8.16666L3.41215 12.1771C3.12048 15.1083 5.27881 17.5 8.22465 17.5Z" stroke="#EF7F1A" stroke-width="1.5" stroke-linecap="round" stroke-linejoin="round"/>
<path d="M17.5003 24.7917C15.0649 24.7917 13.8545 26.0021 13.8545 28.4375V32.0833H21.1462V28.4375C21.1462 26.0021 19.9357 24.7917 17.5003 24.7917Z" stroke="#EF7F1A" stroke-width="1.5" stroke-linecap="round" stroke-linejoin="round"/>
</svg>
