<svg width="35" height="35" viewBox="0 0 35 35" fill="none" xmlns="http://www.w3.org/2000/svg">
<path d="M13.1247 27.7083C13.1247 28.8021 12.8184 29.8375 12.2788 30.7125C11.2726 32.4042 9.42051 33.5417 7.29134 33.5417C5.16217 33.5417 3.31009 32.4042 2.30384 30.7125C1.76426 29.8375 1.45801 28.8021 1.45801 27.7083C1.45801 24.4854 4.06842 21.875 7.29134 21.875C10.5143 21.875 13.1247 24.4854 13.1247 27.7083Z" stroke="#EF7F1A" stroke-width="1.5" stroke-miterlimit="10" stroke-linecap="round" stroke-linejoin="round"/>
<path d="M5.01855 27.7076L6.46231 29.1513L9.56856 26.2785" stroke="#EF7F1A" stroke-width="1.5" stroke-linecap="round" stroke-linejoin="round"/>
<path d="M25.8876 10.2812C25.5376 10.2229 25.173 10.2083 24.7939 10.2083H10.2105C9.80222 10.2083 9.40846 10.2375 9.0293 10.2958C9.23346 9.88746 9.52513 9.50834 9.87513 9.15834L14.6147 4.40416C16.6126 2.42082 19.8501 2.42082 21.848 4.40416L24.4001 6.98535C25.3335 7.9041 25.8293 9.07078 25.8876 10.2812Z" stroke="#EF7F1A" stroke-width="1.5" stroke-linecap="round" stroke-linejoin="round"/>
<path d="M32.0837 17.5V24.7917C32.0837 29.1667 29.167 32.0833 24.792 32.0833H11.1274C11.5795 31.7042 11.9732 31.2375 12.2795 30.7125C12.8191 29.8375 13.1253 28.8021 13.1253 27.7083C13.1253 24.4854 10.5149 21.875 7.29199 21.875C5.54199 21.875 3.98158 22.6479 2.91699 23.8583V17.5C2.91699 13.5333 5.30866 10.7625 9.02741 10.2958C9.40657 10.2375 9.80033 10.2083 10.2087 10.2083H24.792C25.1712 10.2083 25.5357 10.2229 25.8857 10.2812C29.6482 10.7187 32.0837 13.5042 32.0837 17.5Z" stroke="#EF7F1A" stroke-width="1.5" stroke-linecap="round" stroke-linejoin="round"/>
<path d="M32.0837 18.2292H27.7087C26.1045 18.2292 24.792 19.5417 24.792 21.1458C24.792 22.75 26.1045 24.0625 27.7087 24.0625H32.0837" stroke="#EF7F1A" stroke-width="1.5" stroke-linecap="round" stroke-linejoin="round"/>
</svg>
