<svg width="120" height="45" viewBox="0 0 120 45" fill="none" xmlns="http://www.w3.org/2000/svg">
<path fill-rule="evenodd" clip-rule="evenodd" d="M84.069 38.4283C85.0606 38.4938 86.1022 38.4268 87.092 38.4268L87.0937 23.4363C90.7094 36.6301 87.0937 23.4363 90.7094 36.6301C91.3373 38.8868 90.5645 38.4445 93.8674 38.4506L94.6763 38.4231L94.6764 17.292H91.6426L91.5871 29.6522C88.3056 17.292 91.5871 29.6522 88.3056 17.292H84.0583L84.069 38.4283Z" fill="#F8720A"/>
<path fill-rule="evenodd" clip-rule="evenodd" d="M7.64996 36.0486C8.84345 36.1188 9.867 36.4835 11.3538 36.4387C12.5769 36.4018 13.7236 36.178 14.7679 35.7751C17.1314 34.8632 17.9591 33.8495 19.2731 32.0861C19.4301 33.1646 18.3642 34.467 17.8828 34.8409C15.9903 36.3105 13.6738 36.9078 11.1492 36.7998C9.03946 36.7096 8.53529 36.2152 7.64996 36.0486ZM2.06298 18.0854C4.15297 21.8151 9.2181 22.9804 12.893 25.5604C13.301 25.8469 13.5176 26.0429 13.8827 26.3901C14.9303 27.3865 15.3709 29.2607 14.5893 30.3381C14.2959 30.8887 14.0657 31.2329 13.48 31.6546C11.7616 32.8916 9.263 32.4655 7.55289 31.8115C6.41943 31.378 5.35492 30.7105 4.50006 30.0104C3.81862 29.4523 2.43752 28.2379 2.04993 27.5055C1.08811 28.0144 0.231743 28.6623 0.00440277 29.9324C-0.168005 33.5622 4.76029 36.6247 8.24277 37.2895C11.6399 37.938 16.6352 37.8557 19.0719 35.1224C19.3356 34.8265 19.6873 34.2649 19.9489 33.998C20.6556 33.0642 20.8091 31.0871 20.7575 29.9331C20.6465 27.4547 17.9828 25.5142 16.0373 24.4395L11.9268 22.1791C11.5885 21.9975 11.3851 21.9138 11.0695 21.7219C9.14483 20.5517 6.42903 19.386 4.64718 17.9307C3.74331 17.1925 2.80555 16.3726 2.02452 15.4972C1.69653 15.1295 1.20564 14.1513 0.937566 13.9549C0.937566 15.2692 1.43014 16.9561 2.06298 18.0854Z" fill="#F8720A"/>
<path fill-rule="evenodd" clip-rule="evenodd" d="M114.801 35.2896C114.096 35.4622 113.037 35.3932 112.172 35.3932C112.207 28.9566 112.172 35.3932 112.207 28.9566C114.279 28.8039 115.552 28.8342 115.771 30.8716C115.933 32.3699 116.119 34.8417 114.801 35.2896ZM119.15 31.4845V33.5398C119.094 34.4258 118.964 35.2436 118.76 35.813C118.212 37.3454 116.948 38.0755 115.429 38.3456C114.509 38.5093 109.698 38.4882 108.847 38.4269L108.835 17.2921C110.666 17.2921 112.58 17.2367 114.4 17.2887C116.101 17.3374 117.382 17.9707 118.096 19.054C118.725 20.0096 119.028 22.0632 118.79 23.708C118.305 27.0725 117.155 26.443 116.925 27.3033C117.702 27.4844 118.492 28.4609 118.76 29.2094C118.964 29.778 119.094 30.5969 119.15 31.4845ZM114.498 25.687C113.904 25.9662 113.037 25.8876 112.172 25.8876L112.2 20.3535C113.944 20.2284 115.231 20.1489 115.429 21.9225C115.577 23.248 115.692 25.1624 114.498 25.687Z" fill="#F8720A"/>
<path fill-rule="evenodd" clip-rule="evenodd" d="M43.9188 26.604C43.3241 26.8607 42.5484 26.7977 41.6941 26.7977L41.6547 20.3329C43.7102 20.333 44.8189 20.1014 44.9188 22.3467C44.985 23.8314 45.2252 26.1104 43.9188 26.604ZM48.2705 24.2731C48.3605 20.9981 48.3396 17.41 43.9222 17.2887C42.0669 17.2377 40.1216 17.2922 38.2559 17.2922L38.3014 38.3879L41.694 38.4234L41.6564 29.8402C44.1581 29.8404 44.9354 29.9969 44.9388 32.6625C44.9414 34.6354 44.7888 36.6365 45.233 38.4402L48.6716 38.4242C47.7496 36.5073 48.8164 32.2463 47.8231 29.7699C47.4363 28.8055 46.9965 28.6442 46.2033 28.1124C47.655 27.068 48.2205 26.0968 48.2705 24.2731Z" fill="white"/>
<path fill-rule="evenodd" clip-rule="evenodd" d="M55.7442 35.4988C55.2654 35.7161 54.3442 35.6266 53.9598 35.3573C53.5303 35.0566 53.329 34.4643 53.3132 33.7792L53.3173 25.0785C53.3173 23.893 53.1009 21.7398 53.5282 20.9325C54.0732 19.7132 56.2858 19.7755 56.6283 21.3681C56.8175 22.2479 56.708 29.9209 56.708 31.4493C56.708 33.263 57.0342 34.9496 55.7442 35.4988ZM50.9921 18.7078L50.8981 18.8175C50.5127 19.6927 50.0951 20.0662 49.9863 21.5392C49.844 23.4658 49.9554 30.4204 49.9535 32.6628C49.9502 36.5212 51.2695 38.6605 54.9364 38.6992C56.29 38.7135 56.9281 38.4537 57.9335 37.9924L58.07 37.9197C60.1757 36.53 60.0925 33.9814 60.0925 31.5504C60.0925 28.7527 60.0918 25.9549 60.0925 23.1572C60.093 21.7011 60.0065 20.5903 59.5216 19.582C58.8079 18.0978 57.369 17.125 55.7482 17.0858C53.9822 17.0431 51.9719 17.2341 50.9921 18.7078Z" fill="white"/>
<path fill-rule="evenodd" clip-rule="evenodd" d="M101.665 21.8314C103.144 31.734 101.665 21.8314 103.144 31.734L100.037 31.7536C101.665 21.8314 100.037 31.7536 101.665 21.8314ZM95.9141 38.4189L99.0258 38.4227C99.0259 37.403 99.3793 35.7221 99.5632 34.62C100.093 34.609 103.42 34.4728 103.606 34.7553C103.662 34.8419 104.13 38.0759 104.179 38.4442L107.52 38.4213C104.183 17.2921 107.52 38.4213 104.183 17.2921H99.2281C95.9141 38.4189 99.2281 17.2921 95.9141 38.4189Z" fill="#F8720A"/>
<path fill-rule="evenodd" clip-rule="evenodd" d="M6.98054 10.1026C6.19884 9.0733 6.65628 7.57295 7.36405 6.83033C9.368 4.72767 13.2978 4.58218 16.0511 5.31086C16.5626 5.44627 17.2095 5.7394 17.5665 5.81098C16.8338 5.86262 15.1596 5.47909 14.0785 5.48971C11.123 5.51872 7.31159 6.61237 6.98054 10.1026ZM4.983 8.19104C4.78804 9.85127 5.16322 11.1143 6.03328 12.0906C6.76771 12.9147 7.85561 13.7153 8.91983 14.3632C9.41619 14.6654 10.0495 14.9751 10.5655 15.2515C13.9187 17.0476 19.3981 19.9603 21.9122 22.1036C22.8695 22.9198 23.6934 23.5949 24.3763 24.797C25.5198 26.8099 25.1499 27.9014 25.8126 29.2247C25.8126 27.8088 26.0926 27.3675 25.7547 25.5411C25.1682 22.3714 23.09 20.3311 20.534 18.6269C18.7927 17.4659 13.9323 15.221 12.941 14.1862C11.7473 12.9401 11.928 12.2917 11.9619 11.3258C12.4427 9.49343 14.4793 8.57949 16.8262 8.98764C19.3847 9.43265 20.1304 10.3959 21.6665 11.44L22.1721 10.7533C23.1276 8.58513 22.3567 7.37547 20.4111 5.90705C19.0466 4.87718 16.7819 4.07556 15.0503 3.78479C12.2595 3.31611 9.58221 3.56043 7.38677 4.93382C6.22837 5.65847 5.29055 6.81637 4.983 8.19104Z" fill="white"/>
<path fill-rule="evenodd" clip-rule="evenodd" d="M73.5816 18.7077C73.151 19.6075 72.8972 19.8775 72.7037 21.0963C72.241 24.0097 73.3123 26.0313 75.1379 27.9349C76.1938 29.036 77.3668 29.8225 78.2417 31.1045C78.7111 31.7923 79.0506 32.3113 79.1034 33.371C79.1568 34.4444 78.9089 35.1773 78.0958 35.4911C77.1041 35.7368 76.3331 35.5658 75.9317 34.8268C75.6037 34.223 75.6688 32.9705 75.6688 32.0561H72.534L72.5332 32.7639C72.5305 35.2878 73.0251 37.0046 74.5839 37.9924C75.3258 38.4625 76.4283 38.7017 77.4891 38.7013C78.8507 38.7008 79.3983 38.4244 80.4217 38.0005C82.6592 36.406 82.889 32.99 81.9989 30.7822C81.4001 29.2968 80.787 28.8512 80.0327 27.8945C79.597 27.3419 76.7866 25.2082 76.2333 23.6039C75.9045 22.6503 75.8279 21.7608 76.2404 20.8313C76.6137 20.0969 77.8437 19.8247 78.6313 20.3966C79.3104 20.8898 79.2344 21.9594 79.2541 23.0467L81.6352 23.0562L82.4442 23.056C82.4442 20.2293 81.8608 18.3147 79.8464 17.4628C78.0669 16.7103 75.0598 16.8738 73.6954 18.5473C73.5816 18.687 73.6458 18.577 73.5816 18.7077Z" fill="#F8720A"/>
<path fill-rule="evenodd" clip-rule="evenodd" d="M60.6336 17.9999C61.5219 21.1167 62.4892 24.2929 63.4247 27.416C63.8137 28.7149 64.636 30.9172 64.6295 32.2566C64.6196 34.3183 64.6282 36.382 64.6282 38.4439L67.1766 38.4449L67.9856 38.424C67.9856 36.3377 67.9987 34.2443 67.9843 32.1558C67.9752 30.8555 68.9116 28.4027 69.2789 27.0795C69.4732 26.3792 72.0827 17.8809 72.1317 17.292H68.8958C68.8863 17.7154 68.8345 17.6231 68.7797 17.9998L66.4071 26.8132L66.1659 25.5841L63.9407 17.292H60.4014C60.4688 17.5812 60.5273 17.7164 60.6336 17.9999Z" fill="white"/>
<path fill-rule="evenodd" clip-rule="evenodd" d="M26.8147 20.3327H30.2788L30.2724 38.4349L33.603 38.4196L33.6136 20.333L37.1425 20.3237V17.2921H26.8279L26.8147 20.3327Z" fill="white"/>
<path fill-rule="evenodd" clip-rule="evenodd" d="M76.9805 41.9663C76.5706 42.0004 75.8817 42.3486 75.2442 42.5304C73.4569 43.0403 71.2986 43.5693 69.3962 43.6854C67.9119 43.776 66.5865 43.8796 64.9454 43.889L56.3208 43.2102L48.1164 42.1112C44.2645 41.5435 34.8506 40.1255 31.3734 40.1462C30.4919 40.1515 30.0316 40.0414 29.1492 40.0446L22.2724 40.146C19.0844 40.1421 14.8536 40.6406 11.6096 41.1125C10.8907 41.2171 10.1662 41.3596 9.42969 41.3596C12.4507 41.3309 15.4196 41.3596 18.4297 41.3596C19.9699 41.3596 21.4689 41.4397 22.8845 41.5565C23.6178 41.617 25.1734 41.6043 26.1428 41.7364C26.5408 41.7907 26.9209 41.7354 27.3138 41.7789C29.5267 42.0237 33.9808 42.2421 35.8813 42.5148C37.5881 42.7596 40.3548 42.9142 42.2227 43.1509L48.5611 43.79C51.0442 43.9565 54.2331 44.3836 57.0514 44.6032L63.6321 45C66.761 45 66.8941 44.9803 69.9777 44.3681C71.2428 44.1169 72.4407 43.7799 73.6802 43.4189C74.1679 43.2768 76.6904 42.3622 76.9805 41.9663Z" fill="#F8720A"/>
<path fill-rule="evenodd" clip-rule="evenodd" d="M11.8577 0.122835L11.8562 0.20226C14.7107 0.20226 18.6259 0.932085 21.0376 2.24554C21.3555 2.41866 21.6543 2.55782 21.9499 2.74897C23.1045 3.49548 23.3287 3.71518 24.3814 4.56471C24.7102 4.83005 24.8259 4.92667 25.1279 5.23394C25.4275 5.53866 25.6062 5.6215 25.8904 5.8872C26.3316 6.29967 26.7167 7.11763 27.3281 7.2809C27.4069 6.98585 27.6648 6.72641 27.8571 6.49524C28.0947 6.20962 28.2699 5.98529 28.4405 5.6629C26.022 4.04343 25.1107 3.14936 22.0843 1.9068C20.334 1.18816 16.9944 0.124728 14.6935 0H13.8786L11.8577 0.122835Z" fill="#F8720A"/>
<path fill-rule="evenodd" clip-rule="evenodd" d="M58.0751 37.9199L57.9385 37.9927C58.1056 38.0293 58.0751 38.0739 58.0751 37.9199Z" fill="white"/>
<path fill-rule="evenodd" clip-rule="evenodd" d="M50.9962 18.708C50.8568 18.708 50.8919 18.6746 50.9021 18.8178L50.9962 18.708Z" fill="white"/>
</svg>
