<svg width="20" height="20" viewBox="0 0 20 20" fill="none" xmlns="http://www.w3.org/2000/svg">
<path d="M0 20C0.214958 19.214 0.419482 18.4677 0.62317 17.721C0.869015 16.8203 1.11778 15.92 1.35611 15.0171C1.37941 14.92 1.3682 14.8177 1.32439 14.7279C0.364385 12.9848 -0.0530091 11.1157 0.113949 9.14063C0.353116 6.3132 1.59612 3.99081 3.79119 2.19059C5.01206 1.18518 6.4645 0.500279 8.0169 0.197945C12.655 -0.724498 17.1161 1.64881 19.0273 5.82193C19.7407 7.38173 20.0111 9.02209 19.8784 10.7246C19.5449 15.0067 16.3781 18.6514 12.185 19.5864C9.82129 20.1131 7.56027 19.8038 5.40192 18.7098C5.30563 18.6653 5.19723 18.6541 5.09388 18.6781C3.47982 19.0955 1.86742 19.5179 0.255028 19.9399C0.183236 19.9574 0.111027 19.9733 0 20ZM2.39418 17.6325C2.48934 17.6096 2.56113 17.5933 2.63251 17.5745C3.50904 17.3454 4.38556 17.1208 5.26209 16.8821C5.43907 16.8341 5.57305 16.8612 5.72749 16.9526C7.6379 18.0846 9.68105 18.4197 11.8494 17.9318C16.4825 16.8883 19.2878 12.0048 17.8599 7.47857C16.5589 3.35554 12.4421 0.967204 8.20723 1.88547C4.71447 2.64471 1.94715 5.70339 1.77267 9.5622C1.70047 11.1575 2.05066 12.6685 2.88545 14.0333C3.14966 14.4653 3.19599 14.8264 3.04114 15.2964C2.79195 16.0552 2.6108 16.837 2.39418 17.6325V17.6325Z" fill="#EF7F1A"/>
<path d="M4.9397 7.68266C4.95431 6.85455 5.27779 6.17336 5.86256 5.60528C5.94752 5.51798 6.04935 5.44887 6.16186 5.40215C6.27438 5.35544 6.39521 5.3321 6.51703 5.33356C6.65602 5.33356 6.79627 5.35443 6.93442 5.34066C7.2266 5.31186 7.39356 5.45544 7.49582 5.70379C7.77046 6.3616 8.05429 7.01608 8.30974 7.68141C8.35607 7.80203 8.32894 7.99487 8.25965 8.10715C8.07161 8.39779 7.86586 8.67658 7.64358 8.94194C7.51084 9.10639 7.49999 9.25248 7.60726 9.4328C8.41575 10.7902 9.5398 11.7773 11.0136 12.3596C11.2131 12.4385 11.3759 12.4072 11.5124 12.2343C11.7578 11.9246 12.0133 11.6233 12.2529 11.3082C12.3906 11.1257 12.5517 11.0577 12.7562 11.152C13.4658 11.486 14.1704 11.8199 14.8703 12.1701C14.9438 12.2068 15.0118 12.3312 15.0148 12.4176C15.0431 13.1543 14.829 13.7712 14.1725 14.2007C13.3552 14.735 12.497 14.7817 11.5846 14.5254C9.24428 13.8684 7.50625 12.4051 6.1109 10.4734C5.65177 9.83475 5.22853 9.17693 5.04989 8.39724C4.99396 8.16475 4.97476 7.92183 4.9397 7.68266Z" fill="#EF7F1A"/>
</svg>
