<svg width="20" height="20" viewBox="0 0 20 20" fill="none" xmlns="http://www.w3.org/2000/svg">
<g clip-path="url(#clip0_0_811)">
<path d="M10 0C15.5228 0 20 4.47715 20 10C20 15.5228 15.5228 20 10 20C4.47715 20 0 15.5228 0 10C0 4.47715 4.47715 0 10 0ZM14.0889 6.02051C13.7127 6.02713 13.1355 6.22772 10.3584 7.38281C9.38574 7.78737 7.44155 8.62443 4.52637 9.89453C4.05307 10.0828 3.8048 10.2672 3.78223 10.4473C3.7393 10.7927 4.23727 10.9 4.86328 11.1035C5.37386 11.2695 6.06092 11.464 6.41797 11.4717C6.74172 11.4786 7.10306 11.3452 7.50195 11.0713C10.2213 9.23563 11.6274 8.30613 11.7197 8.2832C11.7818 8.26911 11.8683 8.2513 11.9268 8.30273C11.9852 8.35471 11.9798 8.45406 11.9736 8.48047C11.9205 8.69431 9.3705 11.0139 9.21875 11.1709C8.65611 11.7553 8.01582 12.1131 9.00293 12.7637C9.85715 13.3266 10.3544 13.6859 11.2344 14.2627C11.7967 14.6313 12.2378 15.0688 12.8184 15.0156C13.0856 14.991 13.3618 14.7396 13.502 13.9902C13.8332 12.2192 14.4843 8.38201 14.6348 6.80078C14.6479 6.66227 14.6315 6.48508 14.6182 6.40723C14.6048 6.3294 14.5768 6.21881 14.4756 6.13672C14.3559 6.03969 14.1717 6.01911 14.0889 6.02051Z" fill="#EF7F1A"/>
</g>
<defs>
<clipPath id="clip0_0_811">
<rect width="20" height="20" fill="white"/>
</clipPath>
</defs>
</svg>
