<svg width="22" height="22" viewBox="0 0 22 22" fill="none" xmlns="http://www.w3.org/2000/svg">
<path d="M15.9041 8.29589L13.7591 15.2075C13.2458 16.8484 10.945 16.8759 10.4041 15.2442L9.76248 13.3467C9.58831 12.8242 9.17581 12.4026 8.65331 12.2376L6.74664 11.5959C5.12414 11.055 5.15164 8.73589 6.79248 8.24089L13.7041 6.08672C15.0608 5.67422 16.335 6.94839 15.9041 8.29589Z" stroke="#EF7F1A" stroke-linecap="round" stroke-linejoin="round"/>
<path d="M8.24992 20.1666H13.7499C18.3333 20.1666 20.1666 18.3333 20.1666 13.7499V8.24992C20.1666 3.66659 18.3333 1.83325 13.7499 1.83325H8.24992C3.66659 1.83325 1.83325 3.66659 1.83325 8.24992V13.7499C1.83325 18.3333 3.66659 20.1666 8.24992 20.1666Z" stroke="#EF7F1A" stroke-linecap="round" stroke-linejoin="round"/>
</svg>
